<svg width="1828" height="158" viewBox="0 0 1828 158" fill="none" xmlns="http://www.w3.org/2000/svg">
<path d="M110.58 56.2C110.58 45.4 108.38 37.4 103.98 32.2C99.5797 26.8667 93.5797 24.2667 85.9797 24.4H76.3797V118.2C76.3797 121.8 76.313 125.267 76.1797 128.6C76.0464 131.933 75.8464 134.467 75.5797 136.2C77.8464 135.933 80.713 135.8 84.1797 135.8C87.7797 135.667 90.2464 135.6 91.5797 135.6V151H33.1797V137.8C36.2464 137.667 38.7797 137.267 40.7797 136.6C42.913 135.933 44.513 134.4 45.5797 132C46.7797 129.6 47.3797 125.733 47.3797 120.4V24.6H38.1797C30.5797 24.7333 24.5797 27.3333 20.1797 32.4C15.7797 37.4667 13.5797 45.4 13.5797 56.2H0.379688L1.37969 11H122.58L123.78 56.2H110.58ZM195.058 138C200.658 138 204.058 136.4 205.258 133.2C206.458 129.867 207.058 125.533 207.058 120.2L206.858 91.8C206.858 74.7333 201.458 66.2 190.658 66.2C187.324 66.2 183.991 66.9333 180.658 68.4C177.458 69.8667 174.724 71.6 172.458 73.6V118.8C172.458 120.667 172.391 123.333 172.258 126.8C172.124 130.133 171.924 133.333 171.658 136.4C173.924 136.133 176.324 136 178.858 136C181.391 135.867 183.324 135.8 184.658 135.8V151H132.258V138C137.858 138 141.191 136.4 142.258 133.2C143.458 129.867 144.058 125.533 144.058 120.2V38C144.058 35.6 144.124 32.8667 144.258 29.8C144.391 26.6 144.591 23.5333 144.858 20.6C142.724 20.7333 140.191 20.8667 137.258 21C134.458 21 132.324 21.0667 130.858 21.2V6C140.191 6 147.324 5.33333 152.258 4C157.191 2.66666 160.324 1.33332 161.658 -1.09673e-05H172.458V59C175.124 56.8667 178.191 55 181.658 53.4C185.124 51.6667 188.658 50.3333 192.258 49.4C195.858 48.3333 198.991 47.8 201.658 47.8C213.924 47.8 222.591 51.3333 227.658 58.4C232.724 65.3333 235.324 76.5333 235.458 92V118.8C235.458 120.667 235.391 123.333 235.258 126.8C235.124 130.133 234.924 133.333 234.658 136.4C236.791 136.133 239.124 136 241.658 136C244.191 135.867 246.191 135.8 247.658 135.8V151H195.058V138ZM328.305 102.8C328.305 97.2 327.438 93.2 325.705 90.8C323.971 88.2667 321.571 86.6667 318.505 86C315.571 85.3333 312.305 85.0667 308.705 85.2L303.505 85.4V118.2C303.505 121.8 303.438 125.2 303.305 128.4C303.171 131.6 302.971 134.067 302.705 135.8H329.505C333.505 135.8 337.371 134.933 341.105 133.2C344.838 131.333 347.905 128.333 350.305 124.2C352.705 119.933 353.905 114.2 353.905 107H366.905L365.905 151H260.305V137.8C263.371 137.667 265.905 137.267 267.905 136.6C270.038 135.933 271.638 134.4 272.705 132C273.905 129.6 274.505 125.733 274.505 120.4V43.8C274.505 40.2 274.571 36.7333 274.705 33.4C274.971 30.0667 275.171 27.5333 275.305 25.8C273.171 25.9333 270.505 26.0667 267.305 26.2C264.105 26.2 261.771 26.2667 260.305 26.4V11H360.305L361.505 49.8H348.305C348.305 42.4667 347.038 36.9333 344.505 33.2C341.971 29.4667 338.838 27 335.105 25.8C331.371 24.4667 327.705 23.8667 324.105 24L316.905 24.2C314.105 24.2 311.705 24.6 309.705 25.4C307.705 26.0667 306.171 27.6667 305.105 30.2C304.038 32.6 303.505 36.4 303.505 41.6V71.6H326.905L326.105 54.2H341.505V102.8H328.305ZM518.448 55.8C516.715 44.7333 512.848 36.3333 506.848 30.6C500.848 24.8667 493.182 22.0667 483.848 22.2C478.115 22.2 473.048 23.8 468.648 27C464.382 30.2 462.248 34.3333 462.248 39.4C462.248 45.5333 464.915 50.6 470.248 54.6C475.582 58.6 483.715 62.8667 494.648 67.4C499.715 69.4 504.915 71.7333 510.248 74.4C515.582 77.0667 520.515 80.2667 525.048 84C529.582 87.6 533.248 91.8667 536.048 96.8C538.848 101.6 540.248 107.267 540.248 113.8C540.248 121.667 538.115 128.667 533.848 134.8C529.582 140.933 523.582 145.733 515.848 149.2C508.248 152.533 499.315 154.2 489.048 154.2C483.715 154.2 477.915 153.333 471.648 151.6C465.515 150 459.715 147.6 454.248 144.4L454.848 152.8H439.448V106H452.648C454.515 117.2 458.782 125.667 465.448 131.4C472.248 137 480.315 139.8 489.648 139.8C496.715 139.8 502.448 137.933 506.848 134.2C511.382 130.467 513.648 126.067 513.648 121C513.648 116.333 511.982 112.467 508.648 109.4C505.448 106.333 501.382 103.733 496.448 101.6C491.648 99.4667 486.715 97.4 481.648 95.4C473.115 91.9333 465.382 88.0667 458.448 83.8C451.648 79.4 446.248 74.2 442.248 68.2C438.248 62.0667 436.248 54.6667 436.248 46C436.248 41.8667 437.048 37.6 438.648 33.2C440.248 28.6667 442.848 24.5333 446.448 20.8C450.048 16.9333 454.848 13.8 460.848 11.4C466.848 9 474.248 7.8 483.048 7.8C488.382 7.8 494.182 8.59999 500.448 10.2C506.848 11.8 512.315 14.2 516.848 17.4L516.048 9.19999H531.648V55.8H518.448ZM553.622 138C559.089 138 562.422 136.4 563.622 133.2C564.822 129.867 565.422 125.533 565.422 120.2V87C565.422 84.6 565.489 81.8667 565.622 78.8C565.755 75.6 565.955 72.5333 566.222 69.6C564.089 69.7333 561.555 69.8667 558.622 70C555.822 70 553.689 70.0667 552.222 70.2V55C561.422 55 568.489 54.3333 573.422 53C578.489 51.6667 581.689 50.3333 583.022 49H593.822V118.8C593.822 120.667 593.755 123.333 593.622 126.8C593.489 130.133 593.289 133.333 593.022 136.4C595.155 136.133 597.489 136 600.022 136C602.689 135.867 604.689 135.8 606.022 135.8V151H553.622V138ZM578.622 33.2C574.089 33.2 570.355 31.6 567.422 28.4C564.489 25.2 563.022 21.3333 563.022 16.8C563.022 12.2667 564.555 8.39999 567.622 5.19999C570.689 2 574.289 0.399996 578.422 0.399996C582.689 0.399996 586.222 2 589.022 5.19999C591.955 8.39999 593.422 12.2667 593.422 16.8C593.422 21.3333 592.089 25.2 589.422 28.4C586.755 31.6 583.155 33.2 578.622 33.2ZM615.852 138C621.452 138 624.785 136.4 625.852 133.2C627.052 129.867 627.652 125.533 627.652 120.2V38C627.652 35.6 627.718 32.8667 627.852 29.8C627.985 26.6 628.185 23.5333 628.452 20.6C626.318 20.7333 623.785 20.8667 620.852 21C618.052 21 615.918 21.0667 614.452 21.2V6C623.785 6 630.918 5.33333 635.852 4C640.785 2.66666 643.918 1.33332 645.252 -1.09673e-05H656.052V118.8C656.052 120.667 655.985 123.333 655.852 126.8C655.718 130.133 655.518 133.333 655.252 136.4C657.518 136.133 659.918 136 662.452 136C664.985 135.867 666.918 135.8 668.252 135.8V151H615.852V138ZM716.994 151.6L685.394 82.2C683.927 78.8667 682.86 76.3333 682.194 74.6C681.66 72.8667 681.26 71.4 680.994 70.2C680.86 68.8667 680.594 67.4 680.194 65.8L672.794 66.2V51H719.594V63.8C715.46 63.9333 713.26 65.6 712.994 68.8C712.86 71.8667 713.46 75.4 714.794 79.4L725.194 105C726.26 107.533 727.327 110.133 728.394 112.8C729.46 115.467 730.527 118.133 731.594 120.8H731.794C732.86 118 733.86 115.2 734.794 112.4C735.86 109.6 736.86 106.8 737.794 104L746.394 79.6C747.594 76.2667 748.66 73.6 749.594 71.6C750.66 69.6 751.794 67.5333 752.994 65.4L740.594 66.2V51H778.594V63.8C775.527 64.3333 772.794 66.0667 770.394 69C767.994 71.8 765.927 75 764.194 78.6C762.46 82.0667 761.06 85.1333 759.994 87.8L734.394 151.6H716.994ZM832.467 154.2C822.734 154.2 814.134 152.067 806.667 147.8C799.201 143.4 793.401 137.267 789.267 129.4C785.134 121.4 783.067 112 783.067 101.2C783.067 91.8667 785.134 83.1333 789.267 75C793.401 66.8667 799.201 60.3333 806.667 55.4C814.267 50.3333 823.067 47.8 833.067 47.8C838.667 47.8 844.134 48.6 849.467 50.2C854.801 51.6667 859.601 54.2667 863.867 58C868.267 61.7333 871.734 66.8 874.267 73.2C876.934 79.6 878.201 87.6 878.067 97.2L812.467 98.4C812.467 105.6 813.334 112.067 815.067 117.8C816.934 123.533 819.934 128.067 824.067 131.4C828.201 134.733 833.734 136.4 840.667 136.4C844.667 136.4 849.401 135.333 854.867 133.2C860.467 130.933 865.534 127 870.067 121.4L879.067 129.8C874.267 136.6 869.134 141.8 863.667 145.4C858.201 148.867 852.734 151.2 847.267 152.4C841.934 153.6 837.001 154.2 832.467 154.2ZM813.667 84.4H850.467C850.334 76.1333 848.734 70.3333 845.667 67C842.601 63.5333 838.734 61.8 834.067 61.8C828.201 61.8 823.601 63.9333 820.267 68.2C816.934 72.3333 814.734 77.7333 813.667 84.4ZM891.359 151V137.8C894.426 137.667 896.959 137.267 898.959 136.6C901.093 135.933 902.693 134.4 903.759 132C904.959 129.6 905.559 125.733 905.559 120.4V43.8C905.559 40.2 905.626 36.7333 905.759 33.4C906.026 30.0667 906.226 27.5333 906.359 25.8C904.226 25.9333 901.559 26.0667 898.359 26.2C895.159 26.2 892.826 26.2667 891.359 26.4V11C900.826 10.8667 910.293 10.8 919.759 10.8C929.226 10.8 938.693 10.7333 948.159 10.6C959.893 10.4667 970.093 11.8 978.759 14.6C987.426 17.4 994.093 21.9333 998.759 28.2C1003.43 34.4667 1005.63 42.9333 1005.36 53.6C1005.09 62.1333 1002.09 69.8667 996.359 76.8C990.626 83.7333 981.893 88.8667 970.159 92.2C972.693 93.2667 975.159 95 977.559 97.4C980.093 99.8 982.226 102.333 983.959 105L993.359 119C997.759 125.8 1001.43 130.6 1004.36 133.4C1007.43 136.067 1011.23 137.533 1015.76 137.8V151H982.759C980.359 149.267 977.959 146.8 975.559 143.6C973.293 140.267 970.826 136.467 968.159 132.2L953.359 108.2C950.026 102.867 947.226 99 944.959 96.6H934.559V118C934.559 121.733 934.493 125.267 934.359 128.6C934.226 131.933 934.026 134.467 933.759 136.2C935.226 136.067 937.093 136 939.359 136C941.626 135.867 943.826 135.8 945.959 135.8C948.226 135.667 949.826 135.6 950.759 135.6V151H891.359ZM944.159 82.2C955.226 82.2 963.159 79.7333 967.959 74.8C972.759 69.7333 975.159 62.1333 975.159 52C975.159 45.6 974.159 40.6 972.159 37C970.159 33.2667 967.626 30.5333 964.559 28.8C961.626 26.9333 958.626 25.8 955.559 25.4C952.493 24.8667 949.959 24.6 947.959 24.6C943.826 24.6 940.559 25.4667 938.159 27.2C935.759 28.9333 934.559 33.3333 934.559 40.4V81.4C936.026 81.5333 937.559 81.7333 939.159 82C940.759 82.1333 942.426 82.2 944.159 82.2ZM1161.81 55.8C1160.07 44.7333 1156.21 36.3333 1150.21 30.6C1144.21 24.8667 1136.54 22.0667 1127.21 22.2C1121.47 22.2 1116.41 23.8 1112.01 27C1107.74 30.2 1105.61 34.3333 1105.61 39.4C1105.61 45.5333 1108.27 50.6 1113.61 54.6C1118.94 58.6 1127.07 62.8667 1138.01 67.4C1143.07 69.4 1148.27 71.7333 1153.61 74.4C1158.94 77.0667 1163.87 80.2667 1168.41 84C1172.94 87.6 1176.61 91.8667 1179.41 96.8C1182.21 101.6 1183.61 107.267 1183.61 113.8C1183.61 121.667 1181.47 128.667 1177.21 134.8C1172.94 140.933 1166.94 145.733 1159.21 149.2C1151.61 152.533 1142.67 154.2 1132.41 154.2C1127.07 154.2 1121.27 153.333 1115.01 151.6C1108.87 150 1103.07 147.6 1097.61 144.4L1098.21 152.8H1082.81V106H1096.01C1097.87 117.2 1102.14 125.667 1108.81 131.4C1115.61 137 1123.67 139.8 1133.01 139.8C1140.07 139.8 1145.81 137.933 1150.21 134.2C1154.74 130.467 1157.01 126.067 1157.01 121C1157.01 116.333 1155.34 112.467 1152.01 109.4C1148.81 106.333 1144.74 103.733 1139.81 101.6C1135.01 99.4667 1130.07 97.4 1125.01 95.4C1116.47 91.9333 1108.74 88.0667 1101.81 83.8C1095.01 79.4 1089.61 74.2 1085.61 68.2C1081.61 62.0667 1079.61 54.6667 1079.61 46C1079.61 41.8667 1080.41 37.6 1082.01 33.2C1083.61 28.6667 1086.21 24.5333 1089.81 20.8C1093.41 16.9333 1098.21 13.8 1104.21 11.4C1110.21 9 1117.61 7.8 1126.41 7.8C1131.74 7.8 1137.54 8.59999 1143.81 10.2C1150.21 11.8 1155.67 14.2 1160.21 17.4L1159.41 9.19999H1175.01V55.8H1161.81ZM1245.94 154.2C1237.01 154.2 1228.81 152.2 1221.34 148.2C1213.87 144.2 1207.87 138.4 1203.34 130.8C1198.94 123.2 1196.74 114 1196.74 103.2C1196.74 93.0667 1198.94 83.8667 1203.34 75.6C1207.74 67.2 1213.81 60.4667 1221.54 55.4C1229.41 50.3333 1238.47 47.8 1248.74 47.8C1257.27 47.8 1264.34 49.1333 1269.94 51.8C1275.67 54.3333 1279.94 57.7333 1282.74 62C1285.67 66.1333 1287.14 70.5333 1287.14 75.2C1287.14 79.0667 1285.94 82.5333 1283.54 85.6C1281.27 88.5333 1278.01 90.0667 1273.74 90.2C1268.67 90.3333 1265.14 88.9333 1263.14 86C1261.14 82.9333 1260.14 80 1260.14 77.2C1260.14 76 1260.34 74.6 1260.74 73C1261.14 71.2667 1261.74 69.7333 1262.54 68.4C1261.07 65.4667 1258.74 63.6 1255.54 62.8C1252.34 62 1249.81 61.6667 1247.94 61.8C1241.54 62.2 1236.27 65.4 1232.14 71.4C1228.01 77.4 1225.94 86.0667 1225.94 97.4C1225.94 104.067 1226.74 110.333 1228.34 116.2C1230.07 121.933 1232.87 126.667 1236.74 130.4C1240.61 134.133 1245.81 136.133 1252.34 136.4C1257.94 136.533 1263.41 135.2 1268.74 132.4C1274.07 129.6 1278.61 125.8 1282.34 121L1291.54 130C1286.74 136.667 1281.74 141.733 1276.54 145.2C1271.34 148.667 1266.14 151 1260.94 152.2C1255.87 153.533 1250.87 154.2 1245.94 154.2ZM1302.25 138C1307.72 138 1311.05 136.4 1312.25 133.2C1313.45 129.867 1314.05 125.533 1314.05 120.2V86.6C1314.05 84.2 1314.12 81.5333 1314.25 78.6C1314.39 75.5333 1314.59 72.5333 1314.85 69.6C1312.72 69.7333 1310.19 69.8667 1307.25 70C1304.45 70 1302.32 70.0667 1300.85 70.2V55H1308.85C1314.05 55 1318.79 54.3333 1323.05 53C1327.45 51.6667 1330.32 50.3333 1331.65 49H1341.45C1341.72 50.3333 1341.92 52.8667 1342.05 56.6C1342.19 60.2 1342.25 63.4 1342.25 66.2C1347.59 59.5333 1352.59 54.8 1357.25 52C1361.92 49.2 1366.65 47.8 1371.45 47.8C1376.12 47.8 1380.19 49.1333 1383.65 51.8C1387.12 54.3333 1388.85 58.5333 1388.85 64.4C1388.85 66.4 1388.39 68.5333 1387.45 70.8C1386.52 72.9333 1385.05 74.7333 1383.05 76.2C1381.05 77.6667 1378.32 78.4 1374.85 78.4C1372.19 78.4 1369.45 77.6 1366.65 76C1363.85 74.4 1362.25 71.3333 1361.85 66.8C1359.19 66.8 1356.52 67.9333 1353.85 70.2C1351.19 72.3333 1348.79 74.9333 1346.65 78C1344.65 80.9333 1343.25 83.6667 1342.45 86.2V118.8C1342.45 120.667 1342.39 123.333 1342.25 126.8C1342.12 130.133 1341.92 133.333 1341.65 136.4C1343.79 136.133 1346.12 136 1348.65 136C1351.32 135.867 1353.32 135.8 1354.65 135.8V151H1302.25V138ZM1444.19 154.2C1434.45 154.2 1425.85 152.067 1418.39 147.8C1410.92 143.4 1405.12 137.267 1400.99 129.4C1396.85 121.4 1394.79 112 1394.79 101.2C1394.79 91.8667 1396.85 83.1333 1400.99 75C1405.12 66.8667 1410.92 60.3333 1418.39 55.4C1425.99 50.3333 1434.79 47.8 1444.79 47.8C1450.39 47.8 1455.85 48.6 1461.19 50.2C1466.52 51.6667 1471.32 54.2667 1475.59 58C1479.99 61.7333 1483.45 66.8 1485.99 73.2C1488.65 79.6 1489.92 87.6 1489.79 97.2L1424.19 98.4C1424.19 105.6 1425.05 112.067 1426.79 117.8C1428.65 123.533 1431.65 128.067 1435.79 131.4C1439.92 134.733 1445.45 136.4 1452.39 136.4C1456.39 136.4 1461.12 135.333 1466.59 133.2C1472.19 130.933 1477.25 127 1481.79 121.4L1490.79 129.8C1485.99 136.6 1480.85 141.8 1475.39 145.4C1469.92 148.867 1464.45 151.2 1458.99 152.4C1453.65 153.6 1448.72 154.2 1444.19 154.2ZM1425.39 84.4H1462.19C1462.05 76.1333 1460.45 70.3333 1457.39 67C1454.32 63.5333 1450.45 61.8 1445.79 61.8C1439.92 61.8 1435.32 63.9333 1431.99 68.2C1428.65 72.3333 1426.45 77.7333 1425.39 84.4ZM1551.8 154.2C1542.07 154.2 1533.47 152.067 1526 147.8C1518.54 143.4 1512.74 137.267 1508.6 129.4C1504.47 121.4 1502.4 112 1502.4 101.2C1502.4 91.8667 1504.47 83.1333 1508.6 75C1512.74 66.8667 1518.54 60.3333 1526 55.4C1533.6 50.3333 1542.4 47.8 1552.4 47.8C1558 47.8 1563.47 48.6 1568.8 50.2C1574.14 51.6667 1578.94 54.2667 1583.2 58C1587.6 61.7333 1591.07 66.8 1593.6 73.2C1596.27 79.6 1597.54 87.6 1597.4 97.2L1531.8 98.4C1531.8 105.6 1532.67 112.067 1534.4 117.8C1536.27 123.533 1539.27 128.067 1543.4 131.4C1547.54 134.733 1553.07 136.4 1560 136.4C1564 136.4 1568.74 135.333 1574.2 133.2C1579.8 130.933 1584.87 127 1589.4 121.4L1598.4 129.8C1593.6 136.6 1588.47 141.8 1583 145.4C1577.54 148.867 1572.07 151.2 1566.6 152.4C1561.27 153.6 1556.34 154.2 1551.8 154.2ZM1533 84.4H1569.8C1569.67 76.1333 1568.07 70.3333 1565 67C1561.94 63.5333 1558.07 61.8 1553.4 61.8C1547.54 61.8 1542.94 63.9333 1539.6 68.2C1536.27 72.3333 1534.07 77.7333 1533 84.4ZM1717.1 153L1653.1 71.2C1651.36 68.9333 1649.56 66.5333 1647.7 64C1645.83 61.4667 1643.96 58.8667 1642.1 56.2H1641.9L1642.3 118.2C1642.3 121.8 1642.23 125.267 1642.1 128.6C1641.96 131.933 1641.76 134.467 1641.5 136.2C1643.63 135.933 1646.3 135.8 1649.5 135.8C1652.83 135.667 1655.16 135.6 1656.5 135.6V151H1610.9V137.8C1613.96 137.667 1616.5 137.267 1618.5 136.6C1620.63 135.933 1622.23 134.4 1623.3 132C1624.5 129.6 1625.1 125.733 1625.1 120.4L1624.7 43.8C1624.7 40.2 1624.76 36.7333 1624.9 33.4C1625.03 30.0667 1625.23 27.5333 1625.5 25.8C1623.36 25.9333 1620.63 26.0667 1617.3 26.2C1614.1 26.2 1611.76 26.2667 1610.3 26.4V11H1641.7L1702.9 88.2C1706.23 92.4667 1708.96 96.1333 1711.1 99.2C1713.36 102.267 1715.3 104.933 1716.9 107.2H1717.1V43.8C1717.1 40.2 1717.16 36.7333 1717.3 33.4C1717.43 30.0667 1717.56 27.5333 1717.7 25.8C1715.56 25.9333 1712.9 26.0667 1709.7 26.2C1706.5 26.2 1704.16 26.2667 1702.7 26.4V11H1748.3V24.2C1745.36 24.3333 1742.83 24.7333 1740.7 25.4C1738.56 26.0667 1736.9 27.6 1735.7 30C1734.63 32.2667 1734.1 36.1333 1734.1 41.6V153H1717.1Z" fill="white"/>
<path d="M1804.18 157.4C1798.05 157.4 1792.58 155 1787.78 150.2C1783.25 145.133 1780.98 139 1780.98 131.8C1780.98 124.6 1783.38 118.467 1788.18 113.4C1792.98 108.333 1798.45 105.8 1804.58 105.8C1811.25 105.8 1816.72 108.333 1820.98 113.4C1825.52 118.467 1827.78 124.6 1827.78 131.8C1827.78 139 1825.38 145.133 1820.58 150.2C1815.78 155 1810.32 157.4 1804.18 157.4Z" fill="#F96338" fill-opacity="0.99"/>
</svg>
