<svg width="2624" height="669" viewBox="0 0 2624 669" fill="none" xmlns="http://www.w3.org/2000/svg">
<path d="M2438.1 223C2438.1 198.37 2417.92 178.4 2393.03 178.4H2291.63H2111.37H2009.97C1985.08 178.4 1964.9 198.37 1964.9 223V535.2C1964.9 559.83 1985.08 579.8 2009.97 579.8H2190.23H2393.03C2417.92 579.8 2438.1 559.83 2438.1 535.2V423.7V334.5V223ZM2336.7 535.2H2359.23H2336.7ZM2381.77 535.2H2404.3H2381.77Z" fill="#F96338" fill-opacity="0.88"/>
<path d="M2584.57 211.85C2572.12 211.85 2562.03 221.829 2562.03 234.15V256.45V501.75V524.05C2562.03 536.371 2572.12 546.35 2584.57 546.35C2597.02 546.35 2607.1 536.371 2607.1 524.05V234.15C2607.1 221.829 2597.02 211.85 2584.57 211.85Z" fill="#F96338" fill-opacity="0.88"/>
<path d="M2438.1 334.5V423.7L2562.03 501.75V256.45L2438.1 334.5Z" fill="black"/>
<path d="M2201.5 89.2C2201.5 39.9393 2161.14 0 2111.37 0C2061.59 0 2021.23 39.9393 2021.23 89.2C2021.23 138.461 2061.59 178.4 2111.37 178.4C2161.14 178.4 2201.5 138.461 2201.5 89.2ZM2055.03 89.2H2077.57H2055.03ZM2111.37 144.95V122.65V144.95ZM2111.37 55.75V33.45V55.75ZM2145.17 89.2H2167.7H2145.17Z" fill="#F96338"/>
<path d="M2291.63 178.4C2341.41 178.4 2381.77 138.461 2381.77 89.2C2381.77 39.9393 2341.41 0 2291.63 0C2241.86 0 2201.5 39.9393 2201.5 89.2C2201.5 138.461 2241.86 178.4 2291.63 178.4ZM2347.97 89.2H2325.43H2347.97ZM2291.63 33.45V55.75V33.45ZM2291.63 122.65V144.95V122.65ZM2257.83 89.2H2235.3H2257.83Z" fill="#F96338"/>
<path d="M2393.03 178.4H2291.63H2190.23V379.1V579.8H2393.03C2417.92 579.8 2438.1 559.83 2438.1 535.2V423.7V334.5V223C2438.1 198.37 2417.92 178.4 2393.03 178.4Z" fill="#767D80"/>
<path d="M2190.23 256.45C2121.79 256.45 2066.3 311.364 2066.3 379.1C2066.3 446.836 2121.79 501.75 2190.23 501.75C2258.68 501.75 2314.17 446.836 2314.17 379.1C2314.17 311.364 2258.68 256.45 2190.23 256.45ZM2156.43 423.7V334.5L2257.83 379.1L2156.43 423.7Z" fill="black"/>
<path d="M2156.43 423.7L2257.83 379.1L2156.43 334.5V423.7Z" fill="#767D80"/>
<path d="M2201.5 579.8H2178.97V669H2201.5V579.8Z" fill="#2C2F47"/>
<path d="M2238.59 665.726L2254.52 649.958L2198.2 594.217L2182.27 609.986L2238.59 665.726Z" fill="#2C2F47"/>
<path d="M2141.85 665.77L2198.17 610.03L2182.24 594.262L2125.91 650.002L2141.85 665.77Z" fill="#2C2F47"/>
<path d="M2302.9 33.4502H2280.37V55.7502H2302.9V33.4502Z" fill="#2C2F47"/>
<path d="M2302.9 122.65H2280.37V144.95H2302.9V122.65Z" fill="#2C2F47"/>
<path d="M2302.9 33.4502H2280.37V55.7502H2302.9V33.4502Z" fill="#2C2F47"/>
<path d="M2302.9 122.65H2280.37V144.95H2302.9V122.65Z" fill="#2C2F47"/>
<path d="M2347.97 78.0498H2325.43V100.35H2347.97V78.0498Z" fill="#2C2F47"/>
<path d="M2257.83 78.0498H2235.3V100.35H2257.83V78.0498Z" fill="#2C2F47"/>
<path d="M2347.97 78.0498H2325.43V100.35H2347.97V78.0498Z" fill="#2C2F47"/>
<path d="M2257.83 78.0498H2235.3V100.35H2257.83V78.0498Z" fill="#2C2F47"/>
<path d="M2122.63 33.4502H2100.1V55.7502H2122.63V33.4502Z" fill="#2C2F47"/>
<path d="M2122.63 122.65H2100.1V144.95H2122.63V122.65Z" fill="#2C2F47"/>
<path d="M2122.63 33.4502H2100.1V55.7502H2122.63V33.4502Z" fill="#2C2F47"/>
<path d="M2122.63 122.65H2100.1V144.95H2122.63V122.65Z" fill="#2C2F47"/>
<path d="M2167.7 78.0498H2145.17V100.35H2167.7V78.0498Z" fill="#2C2F47"/>
<path d="M2077.57 78.0498H2055.03V100.35H2077.57V78.0498Z" fill="#2C2F47"/>
<path d="M2167.7 78.0498H2145.17V100.35H2167.7V78.0498Z" fill="#2C2F47"/>
<path d="M2077.57 78.0498H2055.03V100.35H2077.57V78.0498Z" fill="#2C2F47"/>
<path d="M2404.3 524.05H2381.77V546.35H2404.3V524.05Z" fill="#2C2F47"/>
<path d="M2359.23 524.05H2336.7V546.35H2359.23V524.05Z" fill="#2C2F47"/>
<path d="M2314.17 524.05H2291.63V546.35H2314.17V524.05Z" fill="#2C2F47"/>
<path d="M113.58 329.2C113.58 318.4 111.38 310.4 106.98 305.2C102.58 299.867 96.5797 297.267 88.9797 297.4H79.3797V391.2C79.3797 394.8 79.313 398.267 79.1797 401.6C79.0464 404.933 78.8464 407.467 78.5797 409.2C80.8464 408.933 83.713 408.8 87.1797 408.8C90.7797 408.667 93.2464 408.6 94.5797 408.6V424H36.1797V410.8C39.2464 410.667 41.7797 410.267 43.7797 409.6C45.913 408.933 47.513 407.4 48.5797 405C49.7797 402.6 50.3797 398.733 50.3797 393.4V297.6H41.1797C33.5797 297.733 27.5797 300.333 23.1797 305.4C18.7797 310.467 16.5797 318.4 16.5797 329.2H3.37969L4.37969 284H125.58L126.78 329.2H113.58ZM198.058 411C203.658 411 207.058 409.4 208.258 406.2C209.458 402.867 210.058 398.533 210.058 393.2L209.858 364.8C209.858 347.733 204.458 339.2 193.658 339.2C190.324 339.2 186.991 339.933 183.658 341.4C180.458 342.867 177.724 344.6 175.458 346.6V391.8C175.458 393.667 175.391 396.333 175.258 399.8C175.124 403.133 174.924 406.333 174.658 409.4C176.924 409.133 179.324 409 181.858 409C184.391 408.867 186.324 408.8 187.658 408.8V424H135.258V411C140.858 411 144.191 409.4 145.258 406.2C146.458 402.867 147.058 398.533 147.058 393.2V311C147.058 308.6 147.124 305.867 147.258 302.8C147.391 299.6 147.591 296.533 147.858 293.6C145.724 293.733 143.191 293.867 140.258 294C137.458 294 135.324 294.067 133.858 294.2V279C143.191 279 150.324 278.333 155.258 277C160.191 275.667 163.324 274.333 164.658 273H175.458V332C178.124 329.867 181.191 328 184.658 326.4C188.124 324.667 191.658 323.333 195.258 322.4C198.858 321.333 201.991 320.8 204.658 320.8C216.924 320.8 225.591 324.333 230.658 331.4C235.724 338.333 238.324 349.533 238.458 365V391.8C238.458 393.667 238.391 396.333 238.258 399.8C238.124 403.133 237.924 406.333 237.658 409.4C239.791 409.133 242.124 409 244.658 409C247.191 408.867 249.191 408.8 250.658 408.8V424H198.058V411ZM331.305 375.8C331.305 370.2 330.438 366.2 328.705 363.8C326.971 361.267 324.571 359.667 321.505 359C318.571 358.333 315.305 358.067 311.705 358.2L306.505 358.4V391.2C306.505 394.8 306.438 398.2 306.305 401.4C306.171 404.6 305.971 407.067 305.705 408.8H332.505C336.505 408.8 340.371 407.933 344.105 406.2C347.838 404.333 350.905 401.333 353.305 397.2C355.705 392.933 356.905 387.2 356.905 380H369.905L368.905 424H263.305V410.8C266.371 410.667 268.905 410.267 270.905 409.6C273.038 408.933 274.638 407.4 275.705 405C276.905 402.6 277.505 398.733 277.505 393.4V316.8C277.505 313.2 277.571 309.733 277.705 306.4C277.971 303.067 278.171 300.533 278.305 298.8C276.171 298.933 273.505 299.067 270.305 299.2C267.105 299.2 264.771 299.267 263.305 299.4V284H363.305L364.505 322.8H351.305C351.305 315.467 350.038 309.933 347.505 306.2C344.971 302.467 341.838 300 338.105 298.8C334.371 297.467 330.705 296.867 327.105 297L319.905 297.2C317.105 297.2 314.705 297.6 312.705 298.4C310.705 299.067 309.171 300.667 308.105 303.2C307.038 305.6 306.505 309.4 306.505 314.6V344.6H329.905L329.105 327.2H344.505V375.8H331.305ZM521.448 328.8C519.715 317.733 515.848 309.333 509.848 303.6C503.848 297.867 496.182 295.067 486.848 295.2C481.115 295.2 476.048 296.8 471.648 300C467.382 303.2 465.248 307.333 465.248 312.4C465.248 318.533 467.915 323.6 473.248 327.6C478.582 331.6 486.715 335.867 497.648 340.4C502.715 342.4 507.915 344.733 513.248 347.4C518.582 350.067 523.515 353.267 528.048 357C532.582 360.6 536.248 364.867 539.048 369.8C541.848 374.6 543.248 380.267 543.248 386.8C543.248 394.667 541.115 401.667 536.848 407.8C532.582 413.933 526.582 418.733 518.848 422.2C511.248 425.533 502.315 427.2 492.048 427.2C486.715 427.2 480.915 426.333 474.648 424.6C468.515 423 462.715 420.6 457.248 417.4L457.848 425.8H442.448V379H455.648C457.515 390.2 461.782 398.667 468.448 404.4C475.248 410 483.315 412.8 492.648 412.8C499.715 412.8 505.448 410.933 509.848 407.2C514.382 403.467 516.648 399.067 516.648 394C516.648 389.333 514.982 385.467 511.648 382.4C508.448 379.333 504.382 376.733 499.448 374.6C494.648 372.467 489.715 370.4 484.648 368.4C476.115 364.933 468.382 361.067 461.448 356.8C454.648 352.4 449.248 347.2 445.248 341.2C441.248 335.067 439.248 327.667 439.248 319C439.248 314.867 440.048 310.6 441.648 306.2C443.248 301.667 445.848 297.533 449.448 293.8C453.048 289.933 457.848 286.8 463.848 284.4C469.848 282 477.248 280.8 486.048 280.8C491.382 280.8 497.182 281.6 503.448 283.2C509.848 284.8 515.315 287.2 519.848 290.4L519.048 282.2H534.648V328.8H521.448ZM556.622 411C562.089 411 565.422 409.4 566.622 406.2C567.822 402.867 568.422 398.533 568.422 393.2V360C568.422 357.6 568.489 354.867 568.622 351.8C568.755 348.6 568.955 345.533 569.222 342.6C567.089 342.733 564.555 342.867 561.622 343C558.822 343 556.689 343.067 555.222 343.2V328C564.422 328 571.489 327.333 576.422 326C581.489 324.667 584.689 323.333 586.022 322H596.822V391.8C596.822 393.667 596.755 396.333 596.622 399.8C596.489 403.133 596.289 406.333 596.022 409.4C598.155 409.133 600.489 409 603.022 409C605.689 408.867 607.689 408.8 609.022 408.8V424H556.622V411ZM581.622 306.2C577.089 306.2 573.355 304.6 570.422 301.4C567.489 298.2 566.022 294.333 566.022 289.8C566.022 285.267 567.555 281.4 570.622 278.2C573.689 275 577.289 273.4 581.422 273.4C585.689 273.4 589.222 275 592.022 278.2C594.955 281.4 596.422 285.267 596.422 289.8C596.422 294.333 595.089 298.2 592.422 301.4C589.755 304.6 586.155 306.2 581.622 306.2ZM618.852 411C624.452 411 627.785 409.4 628.852 406.2C630.052 402.867 630.652 398.533 630.652 393.2V311C630.652 308.6 630.718 305.867 630.852 302.8C630.985 299.6 631.185 296.533 631.452 293.6C629.318 293.733 626.785 293.867 623.852 294C621.052 294 618.918 294.067 617.452 294.2V279C626.785 279 633.918 278.333 638.852 277C643.785 275.667 646.918 274.333 648.252 273H659.052V391.8C659.052 393.667 658.985 396.333 658.852 399.8C658.718 403.133 658.518 406.333 658.252 409.4C660.518 409.133 662.918 409 665.452 409C667.985 408.867 669.918 408.8 671.252 408.8V424H618.852V411ZM719.994 424.6L688.394 355.2C686.927 351.867 685.86 349.333 685.194 347.6C684.66 345.867 684.26 344.4 683.994 343.2C683.86 341.867 683.594 340.4 683.194 338.8L675.794 339.2V324H722.594V336.8C718.46 336.933 716.26 338.6 715.994 341.8C715.86 344.867 716.46 348.4 717.794 352.4L728.194 378C729.26 380.533 730.327 383.133 731.394 385.8C732.46 388.467 733.527 391.133 734.594 393.8H734.794C735.86 391 736.86 388.2 737.794 385.4C738.86 382.6 739.86 379.8 740.794 377L749.394 352.6C750.594 349.267 751.66 346.6 752.594 344.6C753.66 342.6 754.794 340.533 755.994 338.4L743.594 339.2V324H781.594V336.8C778.527 337.333 775.794 339.067 773.394 342C770.994 344.8 768.927 348 767.194 351.6C765.46 355.067 764.06 358.133 762.994 360.8L737.394 424.6H719.994ZM835.467 427.2C825.734 427.2 817.134 425.067 809.667 420.8C802.201 416.4 796.401 410.267 792.267 402.4C788.134 394.4 786.067 385 786.067 374.2C786.067 364.867 788.134 356.133 792.267 348C796.401 339.867 802.201 333.333 809.667 328.4C817.267 323.333 826.067 320.8 836.067 320.8C841.667 320.8 847.134 321.6 852.467 323.2C857.801 324.667 862.601 327.267 866.867 331C871.267 334.733 874.734 339.8 877.267 346.2C879.934 352.6 881.201 360.6 881.067 370.2L815.467 371.4C815.467 378.6 816.334 385.067 818.067 390.8C819.934 396.533 822.934 401.067 827.067 404.4C831.201 407.733 836.734 409.4 843.667 409.4C847.667 409.4 852.401 408.333 857.867 406.2C863.467 403.933 868.534 400 873.067 394.4L882.067 402.8C877.267 409.6 872.134 414.8 866.667 418.4C861.201 421.867 855.734 424.2 850.267 425.4C844.934 426.6 840.001 427.2 835.467 427.2ZM816.667 357.4H853.467C853.334 349.133 851.734 343.333 848.667 340C845.601 336.533 841.734 334.8 837.067 334.8C831.201 334.8 826.601 336.933 823.267 341.2C819.934 345.333 817.734 350.733 816.667 357.4ZM894.359 424V410.8C897.426 410.667 899.959 410.267 901.959 409.6C904.093 408.933 905.693 407.4 906.759 405C907.959 402.6 908.559 398.733 908.559 393.4V316.8C908.559 313.2 908.626 309.733 908.759 306.4C909.026 303.067 909.226 300.533 909.359 298.8C907.226 298.933 904.559 299.067 901.359 299.2C898.159 299.2 895.826 299.267 894.359 299.4V284C903.826 283.867 913.293 283.8 922.759 283.8C932.226 283.8 941.693 283.733 951.159 283.6C962.893 283.467 973.093 284.8 981.759 287.6C990.426 290.4 997.093 294.933 1001.76 301.2C1006.43 307.467 1008.63 315.933 1008.36 326.6C1008.09 335.133 1005.09 342.867 999.359 349.8C993.626 356.733 984.893 361.867 973.159 365.2C975.693 366.267 978.159 368 980.559 370.4C983.093 372.8 985.226 375.333 986.959 378L996.359 392C1000.76 398.8 1004.43 403.6 1007.36 406.4C1010.43 409.067 1014.23 410.533 1018.76 410.8V424H985.759C983.359 422.267 980.959 419.8 978.559 416.6C976.293 413.267 973.826 409.467 971.159 405.2L956.359 381.2C953.026 375.867 950.226 372 947.959 369.6H937.559V391C937.559 394.733 937.493 398.267 937.359 401.6C937.226 404.933 937.026 407.467 936.759 409.2C938.226 409.067 940.093 409 942.359 409C944.626 408.867 946.826 408.8 948.959 408.8C951.226 408.667 952.826 408.6 953.759 408.6V424H894.359ZM947.159 355.2C958.226 355.2 966.159 352.733 970.959 347.8C975.759 342.733 978.159 335.133 978.159 325C978.159 318.6 977.159 313.6 975.159 310C973.159 306.267 970.626 303.533 967.559 301.8C964.626 299.933 961.626 298.8 958.559 298.4C955.493 297.867 952.959 297.6 950.959 297.6C946.826 297.6 943.559 298.467 941.159 300.2C938.759 301.933 937.559 306.333 937.559 313.4V354.4C939.026 354.533 940.559 354.733 942.159 355C943.759 355.133 945.426 355.2 947.159 355.2ZM1164.81 328.8C1163.07 317.733 1159.21 309.333 1153.21 303.6C1147.21 297.867 1139.54 295.067 1130.21 295.2C1124.47 295.2 1119.41 296.8 1115.01 300C1110.74 303.2 1108.61 307.333 1108.61 312.4C1108.61 318.533 1111.27 323.6 1116.61 327.6C1121.94 331.6 1130.07 335.867 1141.01 340.4C1146.07 342.4 1151.27 344.733 1156.61 347.4C1161.94 350.067 1166.87 353.267 1171.41 357C1175.94 360.6 1179.61 364.867 1182.41 369.8C1185.21 374.6 1186.61 380.267 1186.61 386.8C1186.61 394.667 1184.47 401.667 1180.21 407.8C1175.94 413.933 1169.94 418.733 1162.21 422.2C1154.61 425.533 1145.67 427.2 1135.41 427.2C1130.07 427.2 1124.27 426.333 1118.01 424.6C1111.87 423 1106.07 420.6 1100.61 417.4L1101.21 425.8H1085.81V379H1099.01C1100.87 390.2 1105.14 398.667 1111.81 404.4C1118.61 410 1126.67 412.8 1136.01 412.8C1143.07 412.8 1148.81 410.933 1153.21 407.2C1157.74 403.467 1160.01 399.067 1160.01 394C1160.01 389.333 1158.34 385.467 1155.01 382.4C1151.81 379.333 1147.74 376.733 1142.81 374.6C1138.01 372.467 1133.07 370.4 1128.01 368.4C1119.47 364.933 1111.74 361.067 1104.81 356.8C1098.01 352.4 1092.61 347.2 1088.61 341.2C1084.61 335.067 1082.61 327.667 1082.61 319C1082.61 314.867 1083.41 310.6 1085.01 306.2C1086.61 301.667 1089.21 297.533 1092.81 293.8C1096.41 289.933 1101.21 286.8 1107.21 284.4C1113.21 282 1120.61 280.8 1129.41 280.8C1134.74 280.8 1140.54 281.6 1146.81 283.2C1153.21 284.8 1158.67 287.2 1163.21 290.4L1162.41 282.2H1178.01V328.8H1164.81ZM1248.94 427.2C1240.01 427.2 1231.81 425.2 1224.34 421.2C1216.87 417.2 1210.87 411.4 1206.34 403.8C1201.94 396.2 1199.74 387 1199.74 376.2C1199.74 366.067 1201.94 356.867 1206.34 348.6C1210.74 340.2 1216.81 333.467 1224.54 328.4C1232.41 323.333 1241.47 320.8 1251.74 320.8C1260.27 320.8 1267.34 322.133 1272.94 324.8C1278.67 327.333 1282.94 330.733 1285.74 335C1288.67 339.133 1290.14 343.533 1290.14 348.2C1290.14 352.067 1288.94 355.533 1286.54 358.6C1284.27 361.533 1281.01 363.067 1276.74 363.2C1271.67 363.333 1268.14 361.933 1266.14 359C1264.14 355.933 1263.14 353 1263.14 350.2C1263.14 349 1263.34 347.6 1263.74 346C1264.14 344.267 1264.74 342.733 1265.54 341.4C1264.07 338.467 1261.74 336.6 1258.54 335.8C1255.34 335 1252.81 334.667 1250.94 334.8C1244.54 335.2 1239.27 338.4 1235.14 344.4C1231.01 350.4 1228.94 359.067 1228.94 370.4C1228.94 377.067 1229.74 383.333 1231.34 389.2C1233.07 394.933 1235.87 399.667 1239.74 403.4C1243.61 407.133 1248.81 409.133 1255.34 409.4C1260.94 409.533 1266.41 408.2 1271.74 405.4C1277.07 402.6 1281.61 398.8 1285.34 394L1294.54 403C1289.74 409.667 1284.74 414.733 1279.54 418.2C1274.34 421.667 1269.14 424 1263.94 425.2C1258.87 426.533 1253.87 427.2 1248.94 427.2ZM1305.25 411C1310.72 411 1314.05 409.4 1315.25 406.2C1316.45 402.867 1317.05 398.533 1317.05 393.2V359.6C1317.05 357.2 1317.12 354.533 1317.25 351.6C1317.39 348.533 1317.59 345.533 1317.85 342.6C1315.72 342.733 1313.19 342.867 1310.25 343C1307.45 343 1305.32 343.067 1303.85 343.2V328H1311.85C1317.05 328 1321.79 327.333 1326.05 326C1330.45 324.667 1333.32 323.333 1334.65 322H1344.45C1344.72 323.333 1344.92 325.867 1345.05 329.6C1345.19 333.2 1345.25 336.4 1345.25 339.2C1350.59 332.533 1355.59 327.8 1360.25 325C1364.92 322.2 1369.65 320.8 1374.45 320.8C1379.12 320.8 1383.19 322.133 1386.65 324.8C1390.12 327.333 1391.85 331.533 1391.85 337.4C1391.85 339.4 1391.39 341.533 1390.45 343.8C1389.52 345.933 1388.05 347.733 1386.05 349.2C1384.05 350.667 1381.32 351.4 1377.85 351.4C1375.19 351.4 1372.45 350.6 1369.65 349C1366.85 347.4 1365.25 344.333 1364.85 339.8C1362.19 339.8 1359.52 340.933 1356.85 343.2C1354.19 345.333 1351.79 347.933 1349.65 351C1347.65 353.933 1346.25 356.667 1345.45 359.2V391.8C1345.45 393.667 1345.39 396.333 1345.25 399.8C1345.12 403.133 1344.92 406.333 1344.65 409.4C1346.79 409.133 1349.12 409 1351.65 409C1354.32 408.867 1356.32 408.8 1357.65 408.8V424H1305.25V411ZM1447.19 427.2C1437.45 427.2 1428.85 425.067 1421.39 420.8C1413.92 416.4 1408.12 410.267 1403.99 402.4C1399.85 394.4 1397.79 385 1397.79 374.2C1397.79 364.867 1399.85 356.133 1403.99 348C1408.12 339.867 1413.92 333.333 1421.39 328.4C1428.99 323.333 1437.79 320.8 1447.79 320.8C1453.39 320.8 1458.85 321.6 1464.19 323.2C1469.52 324.667 1474.32 327.267 1478.59 331C1482.99 334.733 1486.45 339.8 1488.99 346.2C1491.65 352.6 1492.92 360.6 1492.79 370.2L1427.19 371.4C1427.19 378.6 1428.05 385.067 1429.79 390.8C1431.65 396.533 1434.65 401.067 1438.79 404.4C1442.92 407.733 1448.45 409.4 1455.39 409.4C1459.39 409.4 1464.12 408.333 1469.59 406.2C1475.19 403.933 1480.25 400 1484.79 394.4L1493.79 402.8C1488.99 409.6 1483.85 414.8 1478.39 418.4C1472.92 421.867 1467.45 424.2 1461.99 425.4C1456.65 426.6 1451.72 427.2 1447.19 427.2ZM1428.39 357.4H1465.19C1465.05 349.133 1463.45 343.333 1460.39 340C1457.32 336.533 1453.45 334.8 1448.79 334.8C1442.92 334.8 1438.32 336.933 1434.99 341.2C1431.65 345.333 1429.45 350.733 1428.39 357.4ZM1554.8 427.2C1545.07 427.2 1536.47 425.067 1529 420.8C1521.54 416.4 1515.74 410.267 1511.6 402.4C1507.47 394.4 1505.4 385 1505.4 374.2C1505.4 364.867 1507.47 356.133 1511.6 348C1515.74 339.867 1521.54 333.333 1529 328.4C1536.6 323.333 1545.4 320.8 1555.4 320.8C1561 320.8 1566.47 321.6 1571.8 323.2C1577.14 324.667 1581.94 327.267 1586.2 331C1590.6 334.733 1594.07 339.8 1596.6 346.2C1599.27 352.6 1600.54 360.6 1600.4 370.2L1534.8 371.4C1534.8 378.6 1535.67 385.067 1537.4 390.8C1539.27 396.533 1542.27 401.067 1546.4 404.4C1550.54 407.733 1556.07 409.4 1563 409.4C1567 409.4 1571.74 408.333 1577.2 406.2C1582.8 403.933 1587.87 400 1592.4 394.4L1601.4 402.8C1596.6 409.6 1591.47 414.8 1586 418.4C1580.54 421.867 1575.07 424.2 1569.6 425.4C1564.27 426.6 1559.34 427.2 1554.8 427.2ZM1536 357.4H1572.8C1572.67 349.133 1571.07 343.333 1568 340C1564.94 336.533 1561.07 334.8 1556.4 334.8C1550.54 334.8 1545.94 336.933 1542.6 341.2C1539.27 345.333 1537.07 350.733 1536 357.4ZM1720.1 426L1656.1 344.2C1654.36 341.933 1652.56 339.533 1650.7 337C1648.83 334.467 1646.96 331.867 1645.1 329.2H1644.9L1645.3 391.2C1645.3 394.8 1645.23 398.267 1645.1 401.6C1644.96 404.933 1644.76 407.467 1644.5 409.2C1646.63 408.933 1649.3 408.8 1652.5 408.8C1655.83 408.667 1658.16 408.6 1659.5 408.6V424H1613.9V410.8C1616.96 410.667 1619.5 410.267 1621.5 409.6C1623.63 408.933 1625.23 407.4 1626.3 405C1627.5 402.6 1628.1 398.733 1628.1 393.4L1627.7 316.8C1627.7 313.2 1627.76 309.733 1627.9 306.4C1628.03 303.067 1628.23 300.533 1628.5 298.8C1626.36 298.933 1623.63 299.067 1620.3 299.2C1617.1 299.2 1614.76 299.267 1613.3 299.4V284H1644.7L1705.9 361.2C1709.23 365.467 1711.96 369.133 1714.1 372.2C1716.36 375.267 1718.3 377.933 1719.9 380.2H1720.1V316.8C1720.1 313.2 1720.16 309.733 1720.3 306.4C1720.43 303.067 1720.56 300.533 1720.7 298.8C1718.56 298.933 1715.9 299.067 1712.7 299.2C1709.5 299.2 1707.16 299.267 1705.7 299.4V284H1751.3V297.2C1748.36 297.333 1745.83 297.733 1743.7 298.4C1741.56 299.067 1739.9 300.6 1738.7 303C1737.63 305.267 1737.1 309.133 1737.1 314.6V426H1720.1Z" fill="black"/>
<path d="M1807.18 430.4C1801.05 430.4 1795.58 428 1790.78 423.2C1786.25 418.133 1783.98 412 1783.98 404.8C1783.98 397.6 1786.38 391.467 1791.18 386.4C1795.98 381.333 1801.45 378.8 1807.58 378.8C1814.25 378.8 1819.72 381.333 1823.98 386.4C1828.52 391.467 1830.78 397.6 1830.78 404.8C1830.78 412 1828.38 418.133 1823.58 423.2C1818.78 428 1813.32 430.4 1807.18 430.4Z" fill="#F96338" fill-opacity="0.99"/>
</svg>
